<svg width="24" height="24" viewBox="0 0 24 24" fill="none" xmlns="http://www.w3.org/2000/svg">
<path fill-rule="evenodd" clip-rule="evenodd" d="M22.3186 0.819946H1.14365C0.888381 0.819946 0.643566 0.921352 0.463062 1.10186C0.282558 1.28236 0.181152 1.52717 0.181152 1.78245V22.9574C0.181152 23.2127 0.282558 23.4575 0.463062 23.638C0.643566 23.8185 0.888381 23.9199 1.14365 23.9199H22.3186C22.5739 23.9199 22.8187 23.8185 22.9992 23.638C23.1797 23.4575 23.2811 23.2127 23.2811 22.9574V1.78245C23.2811 1.52717 23.1797 1.28236 22.9992 1.10186C22.8187 0.921352 22.5739 0.819946 22.3186 0.819946ZM19.3715 6.29272L18.1327 7.48044C18.0804 7.52035 18.0398 7.57381 18.0156 7.63503C17.9913 7.69625 17.9842 7.76295 17.9951 7.82791V16.5559C17.9842 16.6208 17.9913 16.6874 18.0156 16.7488C18.0398 16.81 18.0804 16.8634 18.1327 16.9033L19.3426 18.0911V18.3519H13.2577V18.0911L14.5089 16.8745C14.6321 16.7513 14.6321 16.7147 14.6321 16.527V9.47282L11.1469 18.3278H10.6762L6.62123 9.47282V15.4047C6.60454 15.5277 6.61606 15.6528 6.65491 15.7708C6.69377 15.8887 6.75894 15.9962 6.8455 16.0852L8.47597 18.0622V18.323H3.85597V18.0622L5.48356 16.0852C5.56941 15.9962 5.63313 15.8882 5.66958 15.77C5.70603 15.6518 5.71418 15.5267 5.69338 15.4047V8.54593C5.70327 8.45221 5.691 8.35748 5.65756 8.26937C5.62412 8.18127 5.57046 8.10225 5.50088 8.03869L4.04944 6.29272V6.03188H8.54816L12.0257 13.6587L15.0826 6.03188H19.3715V6.29272Z" fill="white"/>
</svg>
